<svg xmlns="http://www.w3.org/2000/svg" xmlns:xlink="http://www.w3.org/1999/xlink" width="317.203125"
     height="193.68896484375" viewBox="0 0 317.203125 193.68896484375" fill="none">
    <g opacity="1" transform="translate(0.000152587890625 0)  rotate(0)">
        <g opacity="1" transform="translate(2.65411376953125 30.061767578125)  rotate(0)">
            <g opacity="1" transform="translate(34.335662841796875 0)  rotate(0)">
                <path id="路径 1009" fill-rule="evenodd" fill="currentColor" opacity="1"
                      d="M0 77.58ZM14.05 0L3.12 0L0 77.58L17.17 77.58L14.05 0Z"></path>
            </g>
            <g opacity="1" transform="translate(0 0)  rotate(0)">
                <path id="路径 1010" fill-rule="evenodd" fill="currentColor" opacity="1"
                      d="M0 53.84ZM11.71 60.87L48.38 0L37.46 0L0 53.84L11.71 60.87Z"></path>
            </g>
        </g>
        <g opacity="1" transform="translate(83.2913818359375 32.52685546875)  rotate(0)">
            <g opacity="1" transform="translate(34.335662841796875 0)  rotate(0)">
                <path id="路径 1011" fill-rule="evenodd" fill="currentColor" opacity="1"
                      d="M0 77.58ZM14.05 0L3.12 0L0 77.58L17.17 77.58L14.05 0Z"></path>
            </g>
            <g opacity="1" transform="translate(0 49.94287109375)  rotate(0)">
                <path id="路径 1012" fill-rule="evenodd" fill="currentColor" opacity="1"
                      d="M61.51 0ZM0 3.9L0 11.71L61.51 14.83L61.51 0L0 3.9Z"></path>
            </g>
            <g opacity="1" transform="translate(0 0)  rotate(0)">
                <path id="路径 1013" fill-rule="evenodd" fill="currentColor" opacity="1"
                      d="M0 53.84ZM11.71 60.87L31.23 27.19L37.46 0L0 53.84L11.71 60.87Z"></path>
            </g>
        </g>
        <g opacity="1" transform="translate(38.70654296875 32.52685546875)  rotate(0)">
            <path id="路径 1014" fill-rule="evenodd" fill="currentColor" opacity="1"
                  d="M38.79 77.58C60.21 77.58 77.58 60.21 77.58 38.79C77.58 17.37 60.21 0 38.79 0C17.37 0 0 17.37 0 38.79C0 60.21 17.37 77.58 38.79 77.58ZM64.213 38.574C64.213 24.654 52.933 13.364 39.003 13.364C25.083 13.364 13.793 24.654 13.793 38.574C13.793 52.504 25.083 63.794 39.003 63.794C52.933 63.794 64.213 52.504 64.213 38.574Z"></path>
        </g>
        <g opacity="1" transform="translate(99.81796264648438 32.52685546875)  rotate(0)">
            <path id="路径 1015" fill-rule="evenodd" fill="currentColor" opacity="1"
                  d="M20.93 0ZM0.57 49.6L31.86 0L20.93 0L0 30.09L0.57 49.6Z"></path>
        </g>
        <g opacity="1" transform="translate(2.65411376953125 80.0045166015625)  rotate(0)">
            <path id="路径 1016" fill-rule="evenodd" fill="currentColor" opacity="1"
                  d="M61.51 0ZM0 3.9L0 11.71L61.51 14.83L61.51 0L0 3.9Z"></path>
        </g>
        <g opacity="1" transform="translate(144.95941162109375 3.94757080078125)  rotate(0)">
            <g opacity="1" transform="translate(0 39.71234130859375)  rotate(0)">
                <path id="路径 1017" fill-rule="evenodd" style="fill:#EFEFEF" opacity="1"
                      d="M118.77 22.1ZM58.04 0L1.24 97.59L1.28 97.61C1.07 98.02 0.88 98.45 0.72 98.88C-3.92 111.62 14.38 129.98 41.58 139.88C68.79 149.78 94.6 147.48 99.24 134.74C99.67 133.58 99.89 132.36 99.94 131.11L118.77 22.1L58.04 0Z"></path>
            </g>
            <g opacity="1" transform="translate(31.63189697265625 36.07781982421875)  rotate(0)">
                <path id="椭圆 200" fill-rule="evenodd" style="fill:#B5B5B6" opacity="1"
                      d="M-6.53055 -18.8401C-10.1367 -8.43743 18.4112 10.91 57.2441 24.3715C96.0676 37.8297 130.475 40.3055 134.081 29.9028C137.687 19.5001 109.13 0.14941 70.306 -13.3088C31.473 -26.7702 -2.92445 -29.2428 -6.53055 -18.8401Z"></path>
            </g>
            <g opacity="1" transform="translate(27.504638671875 10.18060302734375)  rotate(0)">
                <path id="路径 1018" fill-rule="evenodd" style="fill:#050B1E" opacity="1"
                      d="M137.32 53.28C140.69 43.56 113.24 25.51 74.81 12.19C36.39 -1.13 3.65 -3.94 0.28 5.78C-1.37 10.52 4.32 17.42 16.28 25.2C28.06 32.86 44.58 40.56 62.79 46.87C85.82 54.85 106.8 59.06 120.65 59.06C129.91 59.06 135.97 57.18 137.32 53.28ZM16.8187 24.3547C28.5387 31.9747 44.9787 39.6347 63.1187 45.9247C99.7487 58.6247 133.299 61.8447 136.379 52.9547C139.459 44.0747 111.119 25.8347 74.4887 13.1347C51.8787 5.3047 30.4487 1.0747 16.6287 1.0747C8.0487 1.0747 2.3987 2.7047 1.2187 6.1047C-0.2313 10.3147 5.4487 16.9647 16.8187 24.3547Z"></path>
            </g>
            <g opacity="1" transform="translate(26.993133544921875 0.009521484375)  rotate(0)">
                <path id="路径 1019" fill-rule="evenodd" style="fill:#FFFFFF" opacity="1"
                      d="M101.048 33.2798ZM45.8683 14.4498C21.7283 9.08977 3.60827 9.33977 1.25827 16.1098C-1.96173 25.4298 25.8783 43.5398 63.4683 56.5698C101.048 69.5998 134.138 72.6098 137.358 63.2898C139.788 56.2898 124.658 44.3198 101.048 33.2798C101.938 20.0398 93.9283 7.18977 80.8483 2.65977C67.6783 -1.91023 53.3083 3.33977 45.8683 14.4498Z"></path>
                <path id="路径 1020" fill-rule="evenodd" style="fill:#050B1E" opacity="1"
                      d="M0.32 15.79C-1.9 22.17 7.9 30.19 16.51 35.79C28.33 43.47 44.89 51.19 63.14 57.51C84.17 64.8 106.53 69.69 121.42 69.69C130.53 69.69 136.84 67.86 138.31 63.62C141.36 54.82 121.71 41.91 102.08 32.66C102.71 18.88 94.19 6.22 81.18 1.71C68.02 -2.85 53.43 1.93 45.43 13.33C25.41 8.96 3.25 7.34 0.32 15.79ZM2.2121 16.4399C0.8521 20.3499 6.6021 26.9599 17.6021 34.1099C29.2821 41.7099 45.6921 49.3499 63.7921 55.6199C103.932 69.5399 133.752 70.6499 136.422 62.9599C138.532 56.8599 123.812 45.0299 100.622 34.1799L100.002 33.8899L100.042 33.2099C100.932 20.0699 92.9021 7.8899 80.5221 3.5999C68.0121 -0.7401 54.1021 3.9499 46.7021 15.0099L46.3221 15.5699L45.6521 15.4299C34.4421 12.9399 24.6521 11.6999 17.2021 11.6999C8.7421 11.6999 3.3021 13.2899 2.2121 16.4399Z"></path>
            </g>
            <g opacity="1" transform="translate(68.29415893554688 0)  rotate(0)">
                <path id="路径 1021" fill-rule="evenodd" style="fill:#EFEFEF" opacity="1"
                      d="M58.1674 41.0492ZM1.16741 21.2892C1.10741 21.4692 0.767406 21.9992 1.24741 22.4592C1.72741 22.9192 13.3874 30.0792 28.2574 35.2392C51.8174 43.3992 57.8574 41.9492 58.1674 41.0492C63.5874 25.4092 55.1874 8.08923 39.5474 2.66923C23.9174 -2.75077 6.58741 5.64923 1.16741 21.2892Z"></path>
                <path id="路径 1022" fill-rule="evenodd" style="fill:#050B1E" opacity="1"
                      d="M59.12 41.37C64.74 25.14 56.11 7.35 39.88 1.72C23.64 -3.91 5.85 4.72 0.22 20.98C-0.26 22.07 0.14 22.78 0.55 23.18C1.21 23.81 13.19 31.07 27.93 36.18C38.11 39.71 46.15 41.85 51.81 42.53C53.08 42.69 54.19 42.77 55.13 42.77C57.46 42.77 58.79 42.3 59.12 41.37ZM57.2979 40.4902C62.4179 25.3602 54.3379 8.8502 39.2279 3.6102C31.9079 1.0802 24.0079 1.5602 16.9679 4.9802C9.9279 8.4002 4.6479 14.3102 2.1179 21.6102L2.0479 21.7802C2.0479 21.7902 2.0379 21.8002 2.0379 21.8102C3.2979 22.6702 14.3679 29.3602 28.5879 34.2902C51.0579 42.0802 56.5479 40.7702 57.2979 40.4902Z"></path>
            </g>
            <g opacity="1" transform="translate(58.939727783203125 30.06085205078125)  rotate(0)">
                <path id="椭圆 201" fill-rule="evenodd" style="fill:#B5B5B6" opacity="1"
                      d="M-1.24179 -0.467177C-1.92632 1.50754 0.134085 4.02103 3.35599 5.1379C6.58735 6.25805 9.75191 5.55581 10.4364 3.58109C11.121 1.60637 9.07002 -0.90384 5.83867 -2.02399C2.61676 -3.14087 -0.55725 -2.4419 -1.24179 -0.467177Z"></path>
            </g>
            <g opacity="1" transform="translate(86.79165649414062 43.72760009765625)  rotate(0)">
                <path id="椭圆 202" fill-rule="evenodd" style="fill:#B5B5B6" opacity="1"
                      d="M-1.24176 -0.467177C-1.92629 1.50754 0.134116 4.02103 3.35602 5.1379C6.58738 6.25805 9.75194 5.55581 10.4365 3.58109C11.121 1.60637 9.07005 -0.90384 5.8387 -2.02399C2.61679 -3.14087 -0.557219 -2.4419 -1.24176 -0.467177Z"></path>
            </g>
            <g opacity="1" transform="translate(119.66128540039062 51.10992431640625)  rotate(0)">
                <path id="椭圆 203" fill-rule="evenodd" style="fill:#B5B5B6" opacity="1"
                      d="M-1.24176 -0.467177C-1.92629 1.50754 0.134116 4.02103 3.35602 5.1379C6.58738 6.25805 9.75194 5.55581 10.4365 3.58109C11.121 1.60637 9.07005 -0.90384 5.8387 -2.02399C2.61679 -3.14087 -0.557219 -2.4419 -1.24176 -0.467177Z"></path>
            </g>
            <g opacity="1" transform="translate(141.30545043945312 49.72491455078125)  rotate(0)">
                <path id="椭圆 204" fill-rule="evenodd" style="fill:#B5B5B6" opacity="1"
                      d="M-1.24176 -0.467177C-1.92629 1.50754 0.134116 4.02103 3.35602 5.1379C6.58738 6.25805 9.75194 5.55581 10.4365 3.58109C11.121 1.60637 9.07005 -0.90384 5.8387 -2.02399C2.61679 -3.14087 -0.557219 -2.4419 -1.24176 -0.467177Z"></path>
            </g>
            <g opacity="1" transform="translate(42.674224853515625 15.5343017578125)  rotate(0)">
                <path id="椭圆 205" fill-rule="evenodd" style="fill:#B5B5B6" opacity="1"
                      d="M-1.24179 -0.467116C-1.92632 1.5076 0.134085 4.02109 3.35599 5.13796C6.58735 6.25811 9.75191 5.55587 10.4364 3.58115C11.121 1.60643 9.07002 -0.903779 5.83867 -2.02393C2.61676 -3.14081 -0.55725 -2.44183 -1.24179 -0.467116Z"></path>
            </g>
            <g opacity="1" transform="translate(35.49420166015625 103.59307861328125)  rotate(0)">
                <path id="椭圆 206" fill-rule="evenodd" style="fill:#B5B5B6" opacity="1"
                      d="M25.6 0C11.46 0 0 11.46 0 25.6C0 39.73 11.46 51.19 25.6 51.19C39.73 51.19 51.19 39.73 51.19 25.6C51.19 11.46 39.73 0 25.6 0Z"></path>
            </g>
            <g opacity="1" transform="translate(36.316558837890625 104.85406494140625)  rotate(0)">
                <path id="路径 1023" fill-rule="evenodd" style="fill:#FFFFFF" opacity="1"
                      d="M33.28 0.16ZM34.98 23.14C42.32 27.18 41.08 19.12 37.58 16.36C34.07 13.59 36.77 11.35 39.96 11.71C43.16 12.07 43.99 7.97 40.95 4.38C37.91 0.79 33.28 0.16 33.28 0.16C33.28 0.16 28.44 -1.93 31.39 8.97C32.11 11.64 28.15 9 26.78 14.42C26.13 17 22.77 14.51 21.96 12.28C21.07 9.81 17.98 5.57 16.85 9.48C16.28 11.42 16.38 11.95 17.66 13.46C18.95 14.98 22.13 15.92 19.54 18.35C16.94 20.78 11.6 17.19 8.09 20.97C4.82 24.49 5.25 26.23 3.64 26.37C2.24 26.49 -1.43 27.61 0.59 32.24C2.61 36.86 4.89 41.04 7.23 42.94C9.58 44.84 13.8 41.56 15.34 42.96C16.87 44.35 13.44 47.4 15.28 48.07C17.11 48.74 24.16 51.43 33.38 48.54C37.6 47.22 34.38 38.31 32.89 38.81C31.41 39.32 28.27 43.44 23.27 41.28C18.26 39.12 21.64 45.43 18.12 42.76C14.61 40.09 17.96 33.95 21.2 31.99C24.44 30.04 19.69 25.89 22.25 24.32C23.61 23.77 23.94 23.62 24.82 22.75C25.71 21.89 27.64 19.1 34.98 23.14Z"></path>
            </g>
            <g opacity="1" transform="translate(25.5865478515625 112.35296630859375)  rotate(0)">
                <path id="路径 1024" fill-rule="evenodd" style="fill:#050B1E" opacity="1"
                      d="M64.43 35.07ZM14.84 2.34C15.11 2.41 15.38 2.24 15.44 1.97C15.5 1.7 15.34 1.43 15.07 1.37C9.06 -0.05 1.6 -1.08 0.21 2.04C-1.07 4.91 3.78 9.27 8.08 12.42C13.96 16.74 22.28 21.38 31.49 25.48C40.69 29.58 49.7 32.65 56.86 34.13C59.33 34.65 62.08 35.07 64.43 35.07C67.05 35.07 69.16 34.55 69.83 33.04C71.18 30.01 65.76 25.34 60.97 21.95C60.75 21.8 60.44 21.85 60.28 22.07C60.12 22.3 60.17 22.61 60.4 22.77C66.55 27.12 69.73 30.81 68.92 32.63C68.16 34.34 63.72 34.54 57.06 33.16C49.97 31.69 41.04 28.63 31.89 24.56C22.75 20.49 14.5 15.89 8.67 11.61C3.18 7.58 0.36 4.16 1.12 2.45C1.77 0.99 5.72 0.19 14.84 2.34Z"></path>
            </g>
            <g opacity="1" transform="translate(15.19757080078125 114.74139404296875)  rotate(0)">
                <g opacity="1" transform="translate(0 0)  rotate(0)">
                    <path id="路径 1025" fill-rule="evenodd" style="fill:#B5B5B6" opacity="1"
                          d="M2.85 0.22ZM3.01 7.68C3.05 6.68 3.17 5.7 3.41 4.73C3.51 4.3 3.63 3.91 3.78 3.62C3.96 3.26 4.16 2.97 4.36 2.81C5.01 2.32 5.34 1.52 4.9 0.76C4.53 0.12 3.5 -0.27 2.85 0.22C0.51 1.98 0.07 5.15 0 7.9C-0.06 10.8 1.19 13.92 4.19 14.79C6.05 15.33 6.85 12.44 4.99 11.9C4.33 11.71 3.88 11.27 3.49 10.56C3.07 9.79 2.97 8.68 3.01 7.68Z"></path>
                </g>
            </g>
            <g opacity="1" transform="translate(23.58599853515625 124.82708740234375)  rotate(0)">
                <g opacity="1" transform="translate(0 0)  rotate(0)">
                    <path id="路径 1026" fill-rule="evenodd" style="fill:#B5B5B6" opacity="1"
                          d="M0 1.5ZM5.68 5.84C5.76 5.46 5.74 5.02 5.52 4.68C5.34 4.4 5.12 4.22 4.83 4.08L4.55 3.96C4.54 3.96 4.53 3.96 4.52 3.95L4.55 3.96C4.57 3.97 4.6 3.98 4.63 3.99C4.67 4.01 4.7 4.02 4.74 4.04C4.52 3.94 4.31 3.82 4.11 3.68C4.16 3.72 4.2 3.75 4.25 3.79L3.95 3.56C4 3.6 4.06 3.64 4.11 3.68C3.92 3.52 3.75 3.34 3.59 3.16C3.64 3.22 3.68 3.27 3.72 3.33L3.49 3.03C3.52 3.07 3.56 3.11 3.59 3.16C3.45 2.95 3.32 2.73 3.21 2.49C3.23 2.55 3.25 2.6 3.27 2.66L3.12 2.3C3.15 2.36 3.17 2.43 3.21 2.49C3.12 2.27 3.06 2.04 3.01 1.8C3.02 1.87 3.03 1.94 3.04 2.01L2.98 1.61C2.99 1.68 3 1.74 3.01 1.8C3.01 1.7 3 1.6 3 1.5C2.99 0.72 2.32 -0.03 1.5 0C0.7 0.04 -0.01 0.66 0 1.5C0.02 2.61 0.36 3.75 1 4.66C1.31 5.11 1.66 5.53 2.09 5.88C2.63 6.32 3.17 6.63 3.83 6.89C4.17 7.02 4.68 6.91 4.99 6.74C5.3 6.55 5.59 6.2 5.68 5.84ZM3.72 3.33C3.68 3.27 3.64 3.22 3.59 3.16C3.56 3.11 3.52 3.07 3.49 3.03L3.72 3.33ZM3.04 2.01C3.03 1.94 3.02 1.87 3.01 1.8C3 1.74 2.99 1.68 2.98 1.61L3.04 2.01ZM3.21 2.49C3.17 2.43 3.15 2.36 3.12 2.3L3.27 2.66C3.25 2.6 3.23 2.55 3.21 2.49ZM4.55 3.96L4.52 3.95C4.53 3.96 4.54 3.96 4.55 3.96ZM4.83 4.08C4.83 4.08 4.82 4.08 4.82 4.08C4.79 4.06 4.76 4.05 4.74 4.04C4.7 4.02 4.67 4.01 4.63 3.99C4.6 3.98 4.57 3.97 4.55 3.96L4.83 4.08ZM4.88 4.1C4.86 4.09 4.84 4.09 4.82 4.08C4.82 4.08 4.83 4.08 4.83 4.08L4.88 4.1ZM4.11 3.68C4.06 3.64 4 3.6 3.95 3.56L4.25 3.79C4.2 3.75 4.16 3.72 4.11 3.68ZM4.74 4.04C4.76 4.05 4.79 4.06 4.82 4.08C4.79 4.06 4.77 4.05 4.74 4.04Z"></path>
                </g>
            </g>
            <g opacity="1" transform="translate(76.95950317382812 155.10430908203125)  rotate(0)">
                <g opacity="1" transform="translate(0 0)  rotate(0)">
                    <path id="路径 1027" fill-rule="evenodd" style="fill:#B5B5B6" opacity="1"
                          d="M1.91 5.22ZM1.91 5.22C3.76 4.61 5.55 3.8 7.22 2.79C7.9 2.39 8.21 1.43 7.76 0.74C7.33 0.07 6.43 -0.23 5.71 0.2C4.78 0.76 3.81 1.26 2.82 1.7C2.87 1.67 2.93 1.65 2.99 1.63L2.63 1.78C2.69 1.75 2.75 1.73 2.82 1.7C2.26 1.93 1.69 2.14 1.11 2.33C0.37 2.58 -0.19 3.38 0.06 4.18C0.3 4.92 1.11 5.49 1.91 5.22ZM2.82 1.7C2.75 1.73 2.69 1.75 2.63 1.78L2.99 1.63C2.93 1.65 2.87 1.67 2.82 1.7Z"></path>
                </g>
            </g>
            <g opacity="1" transform="translate(87.33822631835938 153.09149169921875)  rotate(0)">
                <g opacity="1" transform="translate(0 0)  rotate(0)">
                    <path id="路径 1028" fill-rule="evenodd" style="fill:#B5B5B6" opacity="1"
                          d="M2.56 7.22ZM4.09 0.73C3.74 1.29 3.36 1.83 2.96 2.35C3 2.3 3.04 2.25 3.08 2.2L2.85 2.51C2.89 2.46 2.92 2.4 2.96 2.35C2.19 3.33 1.35 4.25 0.43 5.1C-0.14 5.64 -0.15 6.69 0.43 7.22C1.05 7.79 1.94 7.79 2.56 7.22C4.14 5.75 5.52 4.06 6.69 2.24C7.11 1.58 6.84 0.56 6.15 0.19C5.4 -0.2 4.55 0.02 4.09 0.73ZM3.08 2.2C3.04 2.25 3 2.3 2.96 2.35C2.92 2.4 2.89 2.46 2.85 2.51L3.08 2.2Z"></path>
                </g>
            </g>
            <g opacity="1" transform="translate(102.34793090820312 65.35015869140625)  rotate(0)">
                <g opacity="1" transform="translate(0 0)  rotate(0)">
                    <path id="路径 1029" fill-rule="evenodd" style="fill:#B5B5B6" opacity="1"
                          d="M14.26 1.08ZM17.16 1.88C17.49 -0.01 14.59 -0.82 14.26 1.08L9.45 28.66L1.78 72.59L0.03 82.63C-0.3 84.52 2.59 85.33 2.92 83.43L7.73 55.86L15.4 11.93L17.16 1.88Z"></path>
                </g>
            </g>
            <g opacity="1" transform="translate(99.28781127929688 62.67327880859375)  rotate(0)">
                <g opacity="1" transform="translate(0 0)  rotate(0)">
                    <path id="路径 1030" fill-rule="evenodd" style="fill:#B5B5B6" opacity="1"
                          d="M2.34 1.5ZM0.02 17.12C-0.1 17.92 0.23 18.73 1.07 18.96C1.78 19.16 2.8 18.72 2.92 17.92C3.61 13.3 4.3 8.68 4.98 4.07C5.11 3.21 5.25 2.36 5.34 1.5C5.43 0.69 4.59 0 3.84 0C3.02 0 2.51 0.59 2.37 1.32C2.36 1.38 2.32 1.76 2.34 1.5C2.34 1.49 2.34 1.49 2.35 1.48C2.33 1.57 2.32 1.65 2.31 1.73C2.25 2.15 2.19 2.57 2.13 2.99C1.94 4.28 1.75 5.58 1.56 6.87C1.14 9.65 0.73 12.44 0.31 15.22C0.21 15.85 0.12 16.49 0.02 17.12ZM2.37 1.32C2.37 1.34 2.37 1.35 2.36 1.36C2.36 1.4 2.35 1.44 2.35 1.48C2.34 1.49 2.34 1.49 2.34 1.5C2.32 1.76 2.36 1.38 2.37 1.32ZM2.37 1.33C2.37 1.34 2.36 1.35 2.36 1.36C2.37 1.35 2.37 1.34 2.37 1.32C2.37 1.31 2.37 1.32 2.37 1.33ZM2.35 1.48C2.35 1.44 2.36 1.4 2.36 1.36C2.36 1.4 2.35 1.44 2.35 1.48Z"></path>
                </g>
            </g>
            <g opacity="1" transform="translate(28.130218505859375 43.82965087890625)  rotate(0)">
                <g opacity="1" transform="translate(0 0)  rotate(0)">
                    <path id="路径 1031" fill-rule="evenodd" style="fill:#B5B5B6" opacity="1"
                          d="M25.37 0.7ZM0.2 43.94C-0.74 45.62 1.85 47.14 2.79 45.45C9.07 34.29 15.4 23.16 21.92 12.14C23.9 8.81 25.88 5.48 27.96 2.21C29 0.58 26.41 -0.93 25.37 0.7C17.25 13.42 9.94 26.71 2.51 39.84C1.74 41.21 0.97 42.57 0.2 43.94Z"></path>
                </g>
            </g>
            <g opacity="1" transform="translate(55.333404541015625 49.15106201171875)  rotate(0)">
                <g opacity="1" transform="translate(0 0)  rotate(0)">
                    <path id="路径 1032" fill-rule="evenodd" style="fill:#B5B5B6" opacity="1"
                          d="M11.85 0.69ZM1.61 17.86C1.15 18.64 0.68 19.42 0.22 20.2C-0.77 21.86 1.82 23.37 2.81 21.71C6.13 16.11 9.46 10.51 12.8 4.92C13.34 4.02 13.86 3.09 14.44 2.2C15.5 0.58 12.9 -0.92 11.85 0.69C10.39 2.93 9.08 5.3 7.71 7.6C5.67 11.02 3.64 14.44 1.61 17.86Z"></path>
                </g>
            </g>
        </g>
        <g opacity="1" transform="translate(121.3131103515625 22.7919921875)  rotate(0)">
            <g opacity="1" transform="translate(0 2.4388427734375)  rotate(0)">
                <path id="矩形 517" fill-rule="evenodd" fill="currentColor" opacity="1"
                      d="M0 1.33L6.21 1.33L6.21 0L0 0L0 1.33Z"></path>
            </g>
            <g opacity="1" transform="translate(2.4388427734375 0)  rotate(0)">
                <path id="矩形 518" fill-rule="evenodd" fill="currentColor" opacity="1"
                      d="M0.000291705 8.1439e-17L0.000291705 6.21L1.33029 6.21L1.33029 0L0.000291705 8.1439e-17Z"></path>
            </g>
        </g>
        <g opacity="1" transform="translate(81.52108764648438 0)  rotate(0)">
            <g opacity="1" transform="translate(0 2.27545166015625)  rotate(0)">
                <path id="矩形 519" fill-rule="evenodd" fill="currentColor" opacity="1"
                      d="M0 1.24L5.79 1.24L5.79 0L0 0L0 1.24Z"></path>
            </g>
            <g opacity="1" transform="translate(2.27545166015625 0)  rotate(0)">
                <path id="矩形 520" fill-rule="evenodd" fill="currentColor" opacity="1"
                      d="M0.00114989 7.59281e-17L0.00114989 5.79L1.24115 5.79L1.24115 0L0.00114989 7.59281e-17Z"></path>
            </g>
        </g>
        <g opacity="1" transform="translate(156.8037109375 45.2855224609375)  rotate(0)">
            <path id="路径 1033" fill-rule="evenodd" fill="currentColor" opacity="1"
                  d="M0.2 1.81C-0.01 2.34 -0.05 2.9 0.06 3.45C0.18 4 0.46 4.5 0.86 4.9C1.4 5.43 2.12 5.71 2.85 5.71C3.22 5.71 3.6 5.64 3.96 5.48C5.02 5.04 5.7 4.01 5.71 2.86C5.71 2.48 5.63 2.1 5.48 1.74C5.33 1.4 5.12 1.09 4.85 0.82C4.58 0.55 4.25 0.34 3.89 0.2C3 -0.15 2 -0.03 1.22 0.52C0.75 0.84 0.4 1.29 0.2 1.81ZM3.9974 2.8583C3.9974 2.7083 3.9674 2.5583 3.9074 2.4183C3.8474 2.2683 3.7574 2.1383 3.6474 2.0283C3.5474 1.9283 3.4174 1.8483 3.2774 1.7983L3.2674 1.7883C3.1274 1.7383 2.9874 1.7083 2.8474 1.7083C2.6174 1.7083 2.3974 1.7783 2.1974 1.9183C2.0074 2.0483 1.8674 2.2283 1.7874 2.4383C1.7074 2.6483 1.6874 2.8783 1.7374 3.0983C1.7774 3.3183 1.8874 3.5183 2.0474 3.6783C2.3774 3.9983 2.8674 4.0883 3.2974 3.9083C3.7174 3.7283 3.9974 3.3183 3.9974 2.8583Z"></path>
        </g>
        <g opacity="1" transform="translate(100.07028198242188 27.2064208984375)  rotate(0)">
            <path id="路径 1034" fill-rule="evenodd" fill="currentColor" opacity="1"
                  d="M5.48 1.74C5.33 1.4 5.12 1.09 4.85 0.82C4.58 0.55 4.25 0.34 3.89 0.2C3 -0.15 2 -0.03 1.23 0.52C0.76 0.84 0.4 1.29 0.2 1.81C-0.01 2.34 -0.05 2.91 0.07 3.45C0.18 4 0.46 4.5 0.86 4.9C1.4 5.43 2.12 5.71 2.85 5.71C3.22 5.71 3.6 5.64 3.96 5.48C5.02 5.04 5.7 4.01 5.71 2.86C5.71 2.48 5.63 2.1 5.48 1.74ZM2.8479 1.7085C2.6179 1.7085 2.3979 1.7785 2.1979 1.9185C2.0079 2.0485 1.8679 2.2285 1.7879 2.4285C1.7079 2.6485 1.6879 2.8785 1.7379 3.0885C1.7779 3.3185 1.8879 3.5185 2.0579 3.6785C2.3879 3.9985 2.8679 4.0885 3.2979 3.9085C3.7279 3.7285 3.9979 3.3185 3.9979 2.8585C3.9979 2.7085 3.9679 2.5585 3.9079 2.4185C3.8479 2.2685 3.7579 2.1385 3.6479 2.0285C3.5479 1.9285 3.4179 1.8485 3.2779 1.7985L3.2679 1.7885C3.1279 1.7385 2.9879 1.7085 2.8479 1.7085Z"></path>
        </g>
        <g opacity="1" transform="translate(148.51055908203125 107.9017333984375)  rotate(0)">
            <path id="路径 1035" fill-rule="evenodd" fill="currentColor" opacity="1"
                  d="M4.8 7.31ZM5.29 7.15C5.67 6.88 5.77 6.35 5.5 5.96L1.55 0.36C1.28 -0.02 0.75 -0.11 0.36 0.16C-0.02 0.43 -0.12 0.96 0.16 1.34L4.1 6.95C4.27 7.18 4.53 7.31 4.8 7.31C4.97 7.31 5.14 7.26 5.29 7.15Z"></path>
        </g>
        <g opacity="1" transform="translate(0 112.08544921875)  rotate(0)">
            <path id="路径 1036" fill-rule="evenodd" fill="currentColor" opacity="1"
                  d="M0.85 5.65ZM1.35 5.49L6.95 1.55C7.33 1.28 7.42 0.75 7.15 0.36C6.88 -0.02 6.35 -0.11 5.96 0.15L0.36 4.1C-0.02 4.37 -0.12 4.9 0.16 5.29C0.32 5.52 0.59 5.65 0.85 5.65C1.02 5.65 1.2 5.6 1.35 5.49Z"></path>
        </g>
        <g opacity="1" transform="translate(12.619537353515625 17.86175537109375)  rotate(0)">
            <path id="路径 1037" fill-rule="evenodd" fill="currentColor" opacity="1"
                  d="M4.81 7.31ZM5.31 7.15C5.69 6.88 5.78 6.34 5.51 5.96L1.55 0.36C1.28 -0.02 0.75 -0.12 0.36 0.16C-0.02 0.43 -0.12 0.96 0.16 1.35L4.12 6.95C4.28 7.18 4.55 7.31 4.81 7.31C4.98 7.31 5.16 7.26 5.31 7.15Z"></path>
        </g>
        <g opacity="1" transform="translate(11.798828125 114.0478515625)  rotate(0)">
            <path id="路径 1038" fill-rule="evenodd" fill="currentColor" opacity="1"
                  d="M0.85 5.67ZM1.35 5.51L6.95 1.55C7.33 1.28 7.42 0.75 7.15 0.36C6.88 -0.02 6.35 -0.12 5.96 0.16L0.36 4.12C-0.02 4.39 -0.12 4.92 0.16 5.31C0.32 5.54 0.59 5.67 0.85 5.67C1.02 5.67 1.2 5.62 1.35 5.51Z"></path>
        </g>
        <g opacity="1" transform="translate(18.412261962890625 12.06744384765625)  rotate(0)">
            <path id="路径 1039" fill-rule="evenodd" fill="currentColor" opacity="1"
                  d="M4.82 7.31ZM5.31 7.15C5.69 6.88 5.78 6.34 5.51 5.96L1.55 0.36C1.28 -0.02 0.75 -0.12 0.36 0.16C-0.02 0.43 -0.11 0.96 0.16 1.35L4.12 6.95C4.28 7.18 4.55 7.31 4.82 7.31C4.99 7.31 5.16 7.26 5.31 7.15Z"></path>
        </g>
        <g opacity="1" transform="translate(144.95953369140625 148.526123046875)  rotate(0)">
            <path id="椭圆 207" fill-rule="evenodd" style="fill:#B5B5B6" opacity="1"
                  d="M5.76 0C2.58 0 0 2.58 0 5.76C0 8.94 2.58 11.52 5.76 11.52C8.94 11.52 11.52 8.94 11.52 5.76C11.52 2.58 8.94 0 5.76 0Z"></path>
        </g>
        <g opacity="1" transform="translate(269.0712585449219 185.68896484375)  rotate(0)">
            <path id="椭圆 208" fill-rule="evenodd" style="fill:#B5B5B6" opacity="1"
                  d="M4 0C1.79 0 0 1.79 0 4C0 6.21 1.79 8 4 8C6.21 8 8 6.21 8 4C8 1.79 6.21 0 4 0Z"></path>
        </g>
        <g opacity="1" transform="translate(20.961517333984375 129.7978515625)  rotate(0)">
            <path id="路径 1040" fill-rule="evenodd" fill="currentColor" opacity="1"
                  d="M3.25 0.27ZM1.9 0.28L0 0.28L0 12.73L2.11 12.73L2.11 6.21C2.11 5.32 2.23 4.5 2.46 3.75C2.62 3.26 2.88 2.87 3.25 2.6C3.61 2.32 4.03 2.18 4.49 2.18C5 2.18 5.52 2.33 6.04 2.64L6.76 0.68C6.03 0.23 5.3 0 4.59 0C4.1 0 3.77 0 3.25 0.27C2.65 0.59 2.38 0.76 1.9 1.65L1.9 0.28Z"></path>
        </g>
        <g opacity="1" transform="translate(30.71954345703125 129.7978515625)  rotate(0)">
            <path id="路径 1041" fill-rule="evenodd" fill="currentColor" opacity="1"
                  d="M3.25 0.27ZM3.25 2.6C3.61 2.32 4.03 2.18 4.49 2.18C5 2.18 5.52 2.33 6.03 2.64L6.76 0.68C6.03 0.23 5.3 0 4.59 0C4.1 0 3.77 0 3.25 0.27C2.65 0.59 2.38 0.76 1.9 1.65L1.9 0.28L0 0.28L0 12.73L2.11 12.73L2.11 6.21C2.11 5.32 2.23 4.5 2.46 3.75C2.62 3.26 2.88 2.87 3.25 2.6Z"></path>
        </g>
        <g opacity="1" transform="translate(54.9825439453125 129.7978515625)  rotate(0)">
            <path id="路径 1042" fill-rule="evenodd" fill="currentColor" opacity="1"
                  d="M3.25 0.27ZM3.25 0.27C2.65 0.59 2.38 0.76 1.9 1.65L1.9 0.28L0 0.28L0 12.73L2.11 12.73L2.11 6.21C2.11 5.32 2.23 4.5 2.46 3.75C2.62 3.26 2.88 2.87 3.25 2.6C3.61 2.32 4.03 2.18 4.49 2.18C5 2.18 5.52 2.33 6.03 2.64L6.76 0.68C6.03 0.23 5.3 0 4.59 0C4.1 0 3.77 0 3.25 0.27Z"></path>
        </g>
        <g opacity="1" transform="translate(39.983551025390625 129.7978515625)  rotate(0)">
            <path id="路径 1043" fill-rule="evenodd" fill="currentColor" opacity="1"
                  d="M10.94 10.11Q11.66 8.73 11.66 6.33C11.66 4.35 11.12 2.8 10.03 1.68C8.94 0.56 7.55 0 5.84 0C4.3 0 2.99 0.46 1.92 1.38C0.64 2.49 0 4.2 0 6.5C0 8.6 0.54 10.21 1.61 11.33C2.69 12.45 4.09 13.01 5.84 13.01C6.92 13.01 7.92 12.75 8.84 12.25C9.76 11.74 10.46 11.03 10.94 10.11ZM5.838 2.004C4.778 2.004 3.908 2.374 3.208 3.124C2.518 3.874 2.168 4.994 2.168 6.504C2.168 8.014 2.518 9.144 3.208 9.894C3.908 10.644 4.778 11.014 5.838 11.014C6.878 11.014 7.758 10.644 8.448 9.884C9.148 9.134 9.488 7.984 9.488 6.434C9.488 4.984 9.138 3.874 8.448 3.134C7.748 2.374 6.878 2.004 5.838 2.004Z"></path>
        </g>
        <g opacity="1" transform="translate(72.38851928710938 125.3448486328125)  rotate(0)">
            <path id="路径 1044" fill-rule="evenodd" fill="currentColor" opacity="1"
                  d="M0 3.76ZM0 3.76C0 3.79 0 3.82 0 3.85L0.64 12.91L2 12.91L2.61 3.85C2.61 3.82 2.61 3.79 2.61 3.76L2.61 1.31C2.61 0.59 2.03 0 1.31 0C0.58 0 0 0.59 0 1.31L0 3.76Z"></path>
        </g>
        <g opacity="1" transform="translate(79.45755004882812 125.3448486328125)  rotate(0)">
            <path id="路径 1045" fill-rule="evenodd" fill="currentColor" opacity="1"
                  d="M0 3.76ZM2.61 3.85C2.61 3.82 2.61 3.79 2.61 3.76L2.61 1.31C2.61 0.59 2.03 0 1.31 0C0.58 0 0 0.59 0 1.31L0 3.76C0 3.79 0 3.82 0 3.85L0.64 12.91L2 12.91L2.61 3.85Z"></path>
        </g>
        <g opacity="1" transform="translate(86.5245361328125 125.3448486328125)  rotate(0)">
            <path id="路径 1046" fill-rule="evenodd" fill="currentColor" opacity="1"
                  d="M0 1.31ZM2.61 1.31C2.61 0.59 2.03 0 1.31 0C0.58 0 0 0.59 0 1.31L0 3.76C0 3.79 0 3.82 0 3.85L0.64 12.91L2 12.91L2.61 3.85C2.61 3.82 2.61 3.79 2.61 3.76L2.61 1.31Z"></path>
        </g>
        <g opacity="1" transform="translate(4.533538818359375 129.7978515625)  rotate(0)">
            <path id="路径 1047" fill-rule="evenodd" fill="currentColor" opacity="1"
                  d="M11.47 6.48C11.47 4.43 10.94 2.83 9.89 1.7C8.84 0.57 7.48 0 5.81 0C4.09 0 2.69 0.58 1.62 1.73C0.54 2.89 0 4.52 0 6.61C0 8.63 0.53 10.21 1.6 11.33C2.67 12.45 4.11 13.01 5.93 13.01C7.37 13.01 8.56 12.66 9.49 11.95C10.05 11.53 10.49 10.99 10.84 10.36C10.88 10.3 10.9 10.24 10.93 10.18C10.99 10.08 11.05 9.98 11.1 9.86C11.25 9.54 11.34 9.26 11.39 9.02C11.4 9.01 11.4 9 11.4 8.99C11.49 8.56 11.47 8.29 11.47 8.29L8.5 8.29C8.35 10.26 7.55 10.86 7.3 11.01C6.89 11.18 6.44 11.27 5.94 11.27C4.9 11.27 4.03 10.91 3.34 10.18C2.65 9.46 2.26 8.41 2.18 7.04L11.46 7.04C11.47 6.79 11.47 6.6 11.47 6.48ZM2.297 5.304L9.247 5.304C9.147 4.264 8.887 3.474 8.447 2.954C7.777 2.144 6.907 1.734 5.837 1.734C4.867 1.734 4.057 2.054 3.397 2.704C2.737 3.354 2.367 4.224 2.297 5.304Z"></path>
        </g>
        <g opacity="1" transform="translate(72.56967163085938 140.8961181640625)  rotate(0)">
            <path id="椭圆 209" fill-rule="evenodd" fill="currentColor" opacity="1"
                  d="M1.13 0C0.5 0 0 0.5 0 1.13C0 1.75 0.5 2.25 1.13 2.25C1.75 2.25 2.25 1.75 2.25 1.13C2.25 0.5 1.75 0 1.13 0Z"></path>
        </g>
        <g opacity="1" transform="translate(79.63803100585938 140.8961181640625)  rotate(0)">
            <path id="椭圆 210" fill-rule="evenodd" fill="currentColor" opacity="1"
                  d="M1.13 0C0.5 0 0 0.5 0 1.13C0 1.75 0.5 2.25 1.13 2.25C1.75 2.25 2.25 1.75 2.25 1.13C2.25 0.5 1.75 0 1.13 0Z"></path>
        </g>
        <g opacity="1" transform="translate(86.70541381835938 140.8961181640625)  rotate(0)">
            <path id="椭圆 211" fill-rule="evenodd" fill="currentColor" opacity="1"
                  d="M1.13 0C0.5 0 0 0.5 0 1.13C0 1.75 0.5 2.25 1.13 2.25C1.75 2.25 2.25 1.75 2.25 1.13C2.25 0.5 1.75 0 1.13 0Z"></path>
        </g>
        <path id="路径 1048" fill-rule="evenodd" style="fill:#B5B5B6" opacity="1"
              d="M183.732 120.599ZM187.552 115.449C185.492 117.379 183.732 120.599 183.732 120.599C187.642 121.149 187.552 115.449 187.552 115.449Z"></path>
        <path id="路径 1049" fill-rule="evenodd" style="fill:#B5B5B6" opacity="1"
              d="M231.562 135.206ZM230.492 140.736C231.292 138.536 231.352 137.036 231.562 135.206C228.832 136.636 230.492 140.736 230.492 140.736Z"></path>
    </g>
</svg>