<svg xmlns="http://www.w3.org/2000/svg" xmlns:xlink="http://www.w3.org/1999/xlink" fill="none" version="1.1" width="40" height="40" viewBox="0 0 40 40"><g><g></g><g><g><rect x="1.2865431308746338" y="1.0526314973831177" width="8.421052932739258" height="37.894737243652344" rx="0" fill="currentColor" fill-opacity="0.6000000238418579"/></g><g><path d="M11.695903062820435 35.73683941364288C11.695903062820435 35.18455466381209 12.143618312989641 34.73683941364288 12.695903062820435 34.73683941364288L37.71695637702942 34.73683941364288C38.269241126860216 34.73683941364288 38.71695637702942 35.18455466381209 38.71695637702942 35.73683941364288L38.71695637702942 38.947365403175354C38.71695637702942 38.947365403175354 38.71695637702942 38.947365403175354 38.71695637702942 38.947365403175354L11.695903062820435 38.947365403175354C11.695903062820435 38.947365403175354 11.695903062820435 38.947365403175354 11.695903062820435 38.947365403175354Z" fill="currentColor" fill-opacity="0.800000011920929"/></g><g><rect x="11.695903062820435" y="13.684208989143372" width="27.021053314208984" height="18.947368621826172" rx="1" fill="currentColor" fill-opacity="0.800000011920929"/></g><g><path d="M11.695903062820435 1.0526314973831177C11.695903062820435 1.0526314973831177 11.695903062820435 1.0526314973831177 11.695903062820435 1.0526314973831177L38.71695637702942 1.0526314973831177C38.71695637702942 1.0526314973831177 38.71695637702942 1.0526314973831177 38.71695637702942 1.0526314973831177L38.71695637702942 10.578947186470032C38.71695637702942 11.131231936300825 38.269241126860216 11.578947186470032 37.71695637702942 11.578947186470032L12.695903062820435 11.578947186470032C12.143618312989641 11.578947186470032 11.695903062820435 11.131231936300825 11.695903062820435 10.578947186470032Z" fill="currentColor" fill-opacity="1"/></g></g></g></svg>