<svg xmlns="http://www.w3.org/2000/svg" xmlns:xlink="http://www.w3.org/1999/xlink" fill="none" version="1.1" width="48" height="48" viewBox="0 0 48 48"><defs><clipPath id="master_svg0_27_84"><rect x="0" y="0" width="48" height="48" rx="0"/></clipPath></defs><g clip-path="url(#master_svg0_27_84)"><g><path d="M18,7.5C18,6.671573,18.6716,6,19.5,6L28.5,6C29.3284,6,30,6.671573,30,7.5L30,10L36,10C40.4183,10,44,13.58172,44,18L44.5,18C45.3284,18,46,18.671599999999998,46,19.5L46,26.5C46,27.3284,45.3284,28,44.5,28L44,28L44,33C44,37.4183,40.4183,41,36,41L32.908,41Q31.3741,41.0002,28.5,41L24.75,41L24,41L19.5,41Q16.6246,41.0005,15.09,41L12,41C7.58172,41,4,37.4183,4,33L4,28L3.5,28C2.671573,28,2,27.3284,2,26.5L2,19.5C1.999999821186,18.671599999999998,2.671573,18,3.5,18L4,18C4,13.58172,7.58172,10,12,10L18,10L18,7.5ZM24,20C25.1046,20,26,19.104599999999998,26,18C26,16.895400000000002,25.1046,16,24,16C22.8954,16,22,16.895400000000002,22,18C22,19.104599999999998,22.8954,20,24,20ZM12,24.5C12,25.328,12.672,26,13.5,26L18.5,26C19.3284,26,20,25.3284,20,24.5C20,23.6716,19.3284,23,18.5,23L13.5,23C12.6716,23,12,23.6716,12,24.5ZM29.5,23C28.6716,23,28,23.6716,28,24.5C28,25.3284,28.6716,26,29.5,26L34.5,26C35.3284,26,36,25.3284,36,24.5C36,23.6716,35.3284,23,34.5,23L29.5,23Z" fill="currentColor" fill-opacity="1"/></g></g></svg>