<?xml version="1.0" encoding="UTF-8"?>
<svg width="1040px" height="1040px" viewBox="0 0 1040 1040" version="1.1" xmlns="http://www.w3.org/2000/svg" xmlns:xlink="http://www.w3.org/1999/xlink">
    <title>网页</title>
    <defs>
        <path d="M427.666224,120 L612.333776,120 C719.316025,120 758.110373,131.139073 797.221484,152.055924 C836.332596,172.972776 867.027224,203.667404 887.944076,242.778516 C908.860927,281.889627 920,320.683975 920,427.666224 L920,612.333776 C920,719.316025 908.860927,758.110373 887.944076,797.221484 C867.027224,836.332596 836.332596,867.027224 797.221484,887.944076 C758.110373,908.860927 719.316025,920 612.333776,920 L427.666224,920 C320.683975,920 281.889627,908.860927 242.778516,887.944076 C203.667404,867.027224 172.972776,836.332596 152.055924,797.221484 C131.139073,758.110373 120,719.316025 120,612.333776 L120,427.666224 C120,320.683975 131.139073,281.889627 152.055924,242.778516 C172.972776,203.667404 203.667404,172.972776 242.778516,152.055924 C281.889627,131.139073 320.683975,120 427.666224,120 Z" id="path-1"></path>
        <filter x="-3.1%" y="-2.9%" width="106.2%" height="106.2%" filterUnits="objectBoundingBox" id="filter-2">
            <feOffset dx="0" dy="2" in="SourceAlpha" result="shadowOffsetOuter1"></feOffset>
            <feGaussianBlur stdDeviation="8" in="shadowOffsetOuter1" result="shadowBlurOuter1"></feGaussianBlur>
            <feColorMatrix values="0 0 0 0 0   0 0 0 0 0   0 0 0 0 0  0 0 0 0.5 0" type="matrix" in="shadowBlurOuter1"></feColorMatrix>
        </filter>
        <filter x="-10.6%" y="-8.6%" width="123.4%" height="121.3%" filterUnits="objectBoundingBox" id="filter-3">
            <feOffset dx="5" dy="10" in="SourceAlpha" result="shadowOffsetOuter1"></feOffset>
            <feGaussianBlur stdDeviation="15.5" in="shadowOffsetOuter1" result="shadowBlurOuter1"></feGaussianBlur>
            <feColorMatrix values="0 0 0 0 0   0 0 0 0 0   0 0 0 0 0  0 0 0 0.270487325 0" type="matrix" in="shadowBlurOuter1" result="shadowMatrixOuter1"></feColorMatrix>
            <feMerge>
                <feMergeNode in="shadowMatrixOuter1"></feMergeNode>
                <feMergeNode in="SourceGraphic"></feMergeNode>
            </feMerge>
        </filter>
    </defs>
    <g id="网页" stroke="none" stroke-width="1" fill="none" fill-rule="evenodd">
        <g id="矩形">
            <use fill="black" fill-opacity="1" filter="url(#filter-2)" xlink:href="#path-1"></use>
            <use fill="#473BF0" fill-rule="evenodd" xlink:href="#path-1"></use>
        </g>
        <g id="编组" filter="url(#filter-3)" transform="translate(300, 278)" fill="#FFFFFF">
            <g id="编组-2">
                <rect id="矩形备份" x="122" y="160" width="190" height="130"></rect>
                <path d="M51.277704,-2.07168062e-15 L78.722296,2.07168062e-15 C96.5526708,-1.2037061e-15 103.018396,1.85651222 109.536914,5.34265408 C116.055433,8.82879593 121.171204,13.9445674 124.657346,20.4630859 C128.143488,26.9816044 130,33.4473292 130,51.277704 L130,432.722296 C130,450.552671 128.143488,457.018396 124.657346,463.536914 C121.171204,470.055433 116.055433,475.171204 109.536914,478.657346 C103.018396,482.143488 96.5526708,484 78.722296,484 L51.277704,484 C33.4473292,484 26.9816044,482.143488 20.4630859,478.657346 C13.9445674,475.171204 8.82879593,470.055433 5.34265408,463.536914 C1.85651222,457.018396 8.02470732e-16,450.552671 -1.38112041e-15,432.722296 L1.38112041e-15,51.277704 C-8.02470732e-16,33.4473292 1.85651222,26.9816044 5.34265408,20.4630859 C8.82879593,13.9445674 13.9445674,8.82879593 20.4630859,5.34265408 C26.9816044,1.85651222 33.4473292,1.2037061e-15 51.277704,-2.07168062e-15 Z" id="矩形"></path>
                <path d="M310,160 L356.673731,160 C385.64809,160 396.154893,163.016832 406.747485,168.681813 C417.340078,174.346793 425.653207,182.659922 431.318187,193.252515 C436.983168,203.845107 440,214.35191 440,243.326269 L440,432.722296 C440,450.552671 438.143488,457.018396 434.657346,463.536914 C431.171204,470.055433 426.055433,475.171204 419.536914,478.657346 C413.018396,482.143488 406.552671,484 388.722296,484 L361.277704,484 C343.447329,484 336.981604,482.143488 330.463086,478.657346 C323.944567,475.171204 318.828796,470.055433 315.342654,463.536914 C311.856512,457.018396 310,450.552671 310,432.722296 L310,160 L310,160 Z" id="矩形备份-2"></path>
                <path d="M361.277704,-2.07168062e-15 L440,0 L440,0 L440,78.722296 C440,96.5526708 438.143488,103.018396 434.657346,109.536914 C431.171204,116.055433 426.055433,121.171204 419.536914,124.657346 C413.018396,128.143488 406.552671,130 388.722296,130 L361.277704,130 C343.447329,130 336.981604,128.143488 330.463086,124.657346 C323.944567,121.171204 318.828796,116.055433 315.342654,109.536914 C311.856512,103.018396 310,96.5526708 310,78.722296 L310,51.277704 C310,33.4473292 311.856512,26.9816044 315.342654,20.4630859 C318.828796,13.9445674 323.944567,8.82879593 330.463086,5.34265408 C336.981604,1.85651222 343.447329,1.2037061e-15 361.277704,-2.07168062e-15 Z" id="矩形备份-3"></path>
            </g>
        </g>
    </g>
</svg>