<svg xmlns="http://www.w3.org/2000/svg" xmlns:xlink="http://www.w3.org/1999/xlink" fill="none" version="1.1" width="48" height="48" viewBox="0 0 48 48"><defs><clipPath id="master_svg0_27_80"><rect x="0" y="0" width="48" height="48" rx="0"/></clipPath></defs><g clip-path="url(#master_svg0_27_80)"><g><path d="M26,18C26,19.104599999999998,25.1046,20,24,20C22.8954,20,22,19.104599999999998,22,18C22,16.895400000000002,22.8954,16,24,16C25.1046,16,26,16.895400000000002,26,18ZM13.5,23C12.6721,23.0008,12.0015,23.6721,12.0015,24.5C12.0015,25.3279,12.6721,25.9992,13.5,26L18.5,26C19.3284,26,20,25.3284,20,24.5C20,23.6716,19.3284,23,18.5,23L13.5,23ZM28,24.5C28,23.6716,28.6716,23,29.5,23L34.5,23C35.3284,23,36,23.6716,36,24.5C36,25.3284,35.3284,26,34.5,26L29.5,26C28.6716,26,28,25.3284,28,24.5ZM28.5,41Q31.3735,41,32.908,41L36,41C40.4183,41,44,37.4183,44,33L44,28L44.5,28C45.3284,28,46,27.3284,46,26.5L46,19.5C46,18.671599999999998,45.3284,18,44.5,18L44,18C44,13.58172,40.4183,10,36,10L30,10L30,7.5C30,6.671573,29.3284,6,28.5,6L19.5,6C18.6716,6,18,6.671573,18,7.5L18,10L12,10C7.58172,10,4,13.58172,4,18L3.5,18C2.671573,18,2,18.671599999999998,2,19.5L2,26.5C2,27.328,2.672,28,3.5,28L4,28L4,33C4,37.4183,7.58172,41,12,41L15.09,41Q20.3846,41.0019,28.5,41ZM12,13L36,13C38.7614,13,41,15.23858,41,18L41,33C41,35.761399999999995,38.7614,38,36,38L32.908,38Q31.9499,37.999700000000004,30.206,38L26,38L23.25,38L18,38Q16.0491,38,15.09,38L12,38C9.238579999999999,38,7,35.761399999999995,7,33L7,18C7,15.23858,9.238579999999999,13,12,13Z" fill="currentColor" fill-opacity="1"/></g></g></svg>